<?xml version="1.0" encoding="utf-8"?>
<!-- Generator: Adobe Illustrator 26.3.1, SVG Export Plug-In . SVG Version: 6.00 Build 0)  -->
<svg version="1.1" id="Layer_1" xmlns="http://www.w3.org/2000/svg" xmlns:xlink="http://www.w3.org/1999/xlink" x="0px" y="0px"
	 viewBox="0 0 32 32" style="enable-background:new 0 0 32 32;" xml:space="preserve">
<style type="text/css">
	.st0{fill:#004FFF;}
</style>
<g id="Logo_Ceisc_Horizontal_RGB_00000045617777410906418060000000617923927128648895_">
	<g>
		<g>
			<path class="st0" d="M21.5,1.7h-11c-4.9,0-8.8,4-8.8,8.8v19.9h19.9c4.9,0,8.8-4,8.8-8.8v-11C30.3,5.6,26.4,1.7,21.5,1.7 M22.6,16
				c0,0.2-0.1,0.4-0.3,0.6c-0.3,0.2-9.6,5.7-9.6,5.7c-0.3,0.1-0.6,0-0.7,0c-0.2-0.1-0.3-0.3-0.3-0.6c0,0,0-10.5,0-11
				c0-0.4,0.2-0.6,0.4-0.7c0.2-0.1,0.5-0.1,0.8,0.1c0.3,0.2,9.3,5.3,9.5,5.5C22.4,15.5,22.6,15.8,22.6,16"/>
		</g>
	</g>
</g>
</svg>
